<svg width="50" height="50" viewBox="0 0 50 50" fill="none" xmlns="http://www.w3.org/2000/svg">
<g clip-path="url(#clip0_21_11)">
<path fill-rule="evenodd" clip-rule="evenodd" d="M41.1106 22.9572C41.7043 22.151 42.1731 21.5051 42.521 21.0176C45.0231 17.5176 46.1064 15.2822 45.7752 14.3072L45.6439 14.078C45.5585 13.9426 45.3335 13.8155 44.9731 13.703C44.6106 13.5884 44.1481 13.5697 43.5835 13.6447L37.3356 13.6905C37.1918 13.6759 37.046 13.6801 36.9022 13.703C36.7564 13.7259 36.6626 13.7488 36.6189 13.7697C36.5772 13.7947 36.5418 13.8134 36.5106 13.828L36.4251 13.8968C36.3522 13.9405 36.2731 14.0218 36.1876 14.1363C36.0981 14.2488 36.0272 14.3822 35.9689 14.5363C35.2897 16.3759 34.5147 18.0884 33.6481 19.6697C33.1126 20.6135 32.621 21.4322 32.173 22.1239C31.7251 22.8176 31.348 23.326 31.0439 23.653C30.7418 23.9801 30.4668 24.2426 30.221 24.4405C29.973 24.6385 29.7855 24.7218 29.6564 24.6926C29.5272 24.6614 29.4022 24.6322 29.2876 24.5989C29.0855 24.4635 28.923 24.278 28.8001 24.0405C28.6751 23.8072 28.5939 23.5093 28.5501 23.151C28.5064 22.7947 28.4814 22.4843 28.473 22.226C28.4668 21.9676 28.4709 21.603 28.4855 21.1301C28.5001 20.6593 28.5064 20.3405 28.5064 20.1718C28.5064 19.5947 28.5168 18.9655 28.5397 18.2884C28.5605 17.6134 28.5793 17.0759 28.5939 16.6801C28.6084 16.2864 28.6147 15.8655 28.6147 15.4259C28.6147 14.9843 28.5897 14.6384 28.5397 14.3863C28.4876 14.1363 28.4126 13.8926 28.3105 13.6572C28.2084 13.4218 28.0605 13.2384 27.8668 13.1093C27.6709 12.9801 27.4272 12.8759 27.1397 12.8009C26.373 12.6176 25.3959 12.5197 24.2105 12.503C21.5209 12.4738 19.7917 12.6572 19.0272 13.0509C18.723 13.2197 18.448 13.4488 18.2022 13.7363C17.9417 14.0718 17.9042 14.2551 18.0917 14.2843C18.9626 14.4218 19.5751 14.7488 19.9376 15.2655L20.0667 15.5384C20.1688 15.7384 20.2688 16.0884 20.3709 16.5905C20.4709 17.0905 20.5376 17.6468 20.5667 18.2551C20.6397 19.3676 20.6397 20.3176 20.5667 21.1093C20.4938 21.8989 20.4272 22.5155 20.3605 22.9572C20.2938 23.3968 20.198 23.7551 20.0688 24.028C19.9376 24.3051 19.8501 24.4718 19.8063 24.5322C19.7626 24.5926 19.7272 24.6301 19.698 24.6468C19.5105 24.7218 19.3147 24.7593 19.1126 24.7593C18.9105 24.7593 18.6647 24.6531 18.3751 24.4385C18.0855 24.228 17.7855 23.9343 17.4751 23.5614C17.1647 23.1885 16.8126 22.6676 16.423 21.9968C16.0334 21.328 15.6271 20.5364 15.2084 19.6239L14.8605 18.9614C14.6459 18.5364 14.348 17.9176 13.973 17.103C13.5959 16.2884 13.2626 15.5009 12.9751 14.7405C12.8584 14.4218 12.6834 14.178 12.4542 14.0093L12.3438 13.9405C12.273 13.8801 12.1563 13.8155 11.998 13.7488C11.8396 13.678 11.673 13.6301 11.498 13.5988L5.55419 13.6447C4.94586 13.6447 4.53544 13.7905 4.31669 14.078L4.23127 14.2155C4.18752 14.2926 4.16669 14.4134 4.16669 14.5801C4.16669 14.7488 4.21044 14.953 4.29794 15.1968C5.16461 17.3426 6.10836 19.4114 7.12712 21.4051C8.14795 23.3968 9.03337 25.0031 9.78546 26.2197C10.5375 27.4385 11.3021 28.5864 12.0855 29.6677C12.8667 30.7489 13.3834 31.4385 13.6355 31.7427C13.8896 32.0489 14.0876 32.276 14.2313 32.4281L14.7751 32.9781C15.1209 33.3427 15.6313 33.7802 16.3042 34.2885C16.9751 34.7989 17.7209 35.301 18.5397 35.7948C19.3542 36.2906 20.3063 36.6927 21.3918 37.0052C22.4751 37.3177 23.5313 37.4427 24.5584 37.3823H27.0522C27.5605 37.3364 27.9439 37.1698 28.2022 36.8802L28.2897 36.7656C28.348 36.676 28.4022 36.5343 28.4522 36.3448C28.5022 36.1531 28.5293 35.9448 28.5293 35.7177C28.5147 35.0635 28.5605 34.4718 28.6689 33.9468C28.7793 33.4218 28.9001 33.0281 29.0376 32.7593C29.1751 32.4947 29.3314 32.2697 29.5064 32.0864C29.6793 31.9031 29.8001 31.7947 29.8751 31.7572C29.946 31.7197 30.0043 31.6927 30.048 31.676C30.3939 31.5552 30.8022 31.6718 31.273 32.0302C31.7439 32.3885 32.1855 32.8281 32.596 33.3531C33.0085 33.8802 33.5043 34.4677 34.0835 35.1218C34.6606 35.7781 35.1668 36.2635 35.6001 36.5843L36.0356 36.8573C36.3231 37.0406 36.7001 37.2073 37.1647 37.3594C37.6251 37.5114 38.0314 37.551 38.3793 37.4739L43.9335 37.3823C44.4814 37.3823 44.9085 37.2864 45.2127 37.0968C45.5148 36.9073 45.696 36.6968 45.7543 36.4698C45.8127 36.2406 45.8148 35.9843 45.7648 35.6927C45.7148 35.4052 45.6627 35.2031 45.6148 35.0906C45.5627 34.976 45.5148 34.8802 45.471 34.8031C44.7502 33.4364 43.3668 31.7531 41.3272 29.7614L41.2835 29.7156L41.2627 29.6906L41.2418 29.6697H41.2189C40.2939 28.7406 39.7085 28.1176 39.4627 27.7968C39.0147 27.1906 38.9127 26.5718 39.1606 25.9489C39.3314 25.476 39.9814 24.4781 41.1106 22.9572Z" fill="#58C2D5"/>
</g>
<defs>
<clipPath id="clip0_21_11">
<rect width="50" height="50" fill="white"/>
</clipPath>
</defs>
</svg>
